# xmcd
#
# Track frame offsets: 
#        150
#        14895
#        26931
#        46343
#        61572
#        82997
#        98633
#        112540
#        125444
#        144555
#        156993
#        170035
#
# Disc length: 2546 seconds
#
# Revision: 0
# Processed by: cddbd v1.5.2PL0 Copyright (c) Steve Scherf et al.
# Submitted via: ExactAudioCopy v0.99pb4
#
DISCID=9709f00c
DTITLE=Veronica Sbergia - Ain't Nothing In Rambling
DYEAR=2007
DGENRE=Blues
TTITLE0=Ain't Nothing In Rambling
TTITLE1=Blues When It Rains
TTITLE2=One Meat Ball
TTITLE3=Hard Headed Man
TTITLE4=St. Louis Blues
TTITLE5=Nobody Knows You
TTITLE6=Me And My Chaffeur
TTITLE7=Jimmy's blues
TTITLE8=Backwater Blues
TTITLE9=Cocaine's Habit blues
TTITLE10=When I Been Drinkin'
TTITLE11=John The Reveletor
EXTD=
EXTT0=
EXTT1=
EXTT2=
EXTT3=
EXTT4=
EXTT5=
EXTT6=
EXTT7=
EXTT8=
EXTT9=
EXTT10=
EXTT11=
PLAYORDER=
